<?xml version="1.0" encoding="UTF-8" standalone="no"?>
<svg
   xmlns:dc="http://purl.org/dc/elements/1.1/"
   xmlns:cc="http://creativecommons.org/ns#"
   xmlns:rdf="http://www.w3.org/1999/02/22-rdf-syntax-ns#"
   xmlns:svg="http://www.w3.org/2000/svg"
   xmlns="http://www.w3.org/2000/svg"
   xmlns:sodipodi="http://sodipodi.sourceforge.net/DTD/sodipodi-0.dtd"
   xmlns:inkscape="http://www.inkscape.org/namespaces/inkscape"
   id="svg8"
   version="1.1"
   viewBox="0 0 35.5 17.03673"
   height="17.03673mm"
   width="35.5mm"
   sodipodi:docname="defusenn.svg"
   inkscape:export-filename="defusenn.svg.png"
   inkscape:export-xdpi="343.43661"
   inkscape:export-ydpi="343.43661"
   inkscape:version="0.92.2 5c3e80d, 2017-08-06">
  <sodipodi:namedview
     pagecolor="#ffffff"
     bordercolor="#666666"
     borderopacity="1"
     objecttolerance="10"
     gridtolerance="10"
     guidetolerance="10"
     inkscape:pageopacity="0"
     inkscape:pageshadow="2"
     inkscape:window-width="2076"
     inkscape:window-height="1479"
     id="namedview32"
     showgrid="false"
     fit-margin-top="0"
     fit-margin-left="0"
     fit-margin-right="0"
     fit-margin-bottom="0"
     inkscape:zoom="3.2800627"
     inkscape:cx="-33.673656"
     inkscape:cy="32.195395"
     inkscape:window-x="68"
     inkscape:window-y="0"
     inkscape:window-maximized="0"
     inkscape:current-layer="svg8" />
  <defs
     id="defs2" />
  <metadata
     id="metadata5">
    <rdf:RDF>
      <cc:Work
         rdf:about="">
        <dc:format>image/svg+xml</dc:format>
        <dc:type
           rdf:resource="http://purl.org/dc/dcmitype/StillImage" />
        <dc:title></dc:title>
      </cc:Work>
    </rdf:RDF>
  </metadata>
  <g
     transform="translate(-83.250001,-118.46327)"
     id="layer1">
    <g
       id="g4906-6-6-5-2-8"
       transform="translate(4.08297,83.960153)">
      <path
         id="path4560-4-8-1-6-2-0-9"
         d="m 84.667031,35.539847 7.5,7.5 h 5 l -7.5,-7.5 z"
         style="opacity:1;fill:#23dec7;fill-opacity:1;fill-rule:evenodd;stroke:none;stroke-width:0.25;stroke-linecap:butt;stroke-linejoin:miter;stroke-miterlimit:4;stroke-dasharray:none;stroke-opacity:1"
         inkscape:connector-curvature="0" />
      <path
         id="path4556-1-3-2-8-4-6-8"
         d="m 87.167031,43.039847 -2.5,-2.5 h 29.999999 l -2.5,2.5 z"
         style="opacity:1;fill:#74e8da;fill-opacity:1;fill-rule:evenodd;stroke:none;stroke-width:0.25;stroke-linecap:butt;stroke-linejoin:miter;stroke-miterlimit:4;stroke-dasharray:none;stroke-opacity:1"
         inkscape:connector-curvature="0" />
      <path
         id="path6051-5-8"
         d="m 94.667031,40.539846 0.625,-0.624999 h 14.999999 l -0.625,0.625 h -9.999999 l -0.625,0.625 h -5 z"
         style="fill:#217867;fill-opacity:1;fill-rule:evenodd;stroke:none;stroke-width:0.26458332px;stroke-linecap:butt;stroke-linejoin:miter;stroke-opacity:1"
         inkscape:connector-curvature="0" />
      <path
         id="path4524-8-4-3-8-0-1-1"
         d="m 79.167031,50.539847 7.5,-7.5 h 5 l -7.5,7.5 z"
         style="opacity:1;fill:#217867;fill-opacity:1;fill-rule:evenodd;stroke:none;stroke-width:0.25;stroke-linecap:butt;stroke-linejoin:miter;stroke-miterlimit:4;stroke-dasharray:none;stroke-opacity:1"
         inkscape:connector-curvature="0" />
      <path
         id="path4558-9-4-0-0-8-94-6"
         d="m 87.167031,45.539847 h 27.499999 l -2.5,-2.5 H 89.667031 Z"
         style="opacity:1;fill:#0cb9a5;fill-opacity:1;fill-rule:evenodd;stroke:none;stroke-width:0.25;stroke-linecap:butt;stroke-linejoin:miter;stroke-miterlimit:4;stroke-dasharray:none;stroke-opacity:1"
         inkscape:connector-curvature="0" />
      <path
         id="path6051-9-4-8"
         d="m 94.667031,45.539847 0.625,0.625 h 17.499999 l -0.625,-0.625 H 99.667031 l -0.625,-0.625 h -3.75 z"
         style="fill:#23dec7;fill-opacity:1;fill-rule:evenodd;stroke:none;stroke-width:0.26458332px;stroke-linecap:butt;stroke-linejoin:miter;stroke-opacity:1"
         inkscape:connector-curvature="0" />
      <path
         id="path4524-4-6-9-8-9-0-6-0"
         d="m 87.167031,48.039847 5,-5 h 5 l -5,5 z"
         style="opacity:1;fill:#217867;fill-opacity:1;fill-rule:evenodd;stroke:none;stroke-width:0.25;stroke-linecap:butt;stroke-linejoin:miter;stroke-miterlimit:4;stroke-dasharray:none;stroke-opacity:1"
         inkscape:connector-curvature="0" />
      <path
         id="path4522-0-9-2-6-6-8-4"
         d="m 81.667031,38.039847 h 5 l 5,5 h -5 z"
         style="opacity:1;fill:#0dc6b1;fill-opacity:1;fill-rule:evenodd;stroke:none;stroke-width:0.25;stroke-linecap:butt;stroke-linejoin:miter;stroke-miterlimit:4;stroke-dasharray:none;stroke-opacity:1"
         inkscape:connector-curvature="0" />
      <g
         transform="translate(9.2220076,-41.941286)"
         id="g5162-5-2-1-8"
         style="opacity:1;fill:#0cb9a5;fill-opacity:1">
        <g
           id="text4612-1-0-75-4-6-08-4"
           style="font-style:normal;font-variant:normal;font-weight:bold;font-stretch:normal;font-size:7.05555534px;line-height:0px;font-family:'Droid Sans';-inkscape-font-specification:'Droid Sans, Bold';font-variant-ligatures:normal;font-variant-caps:normal;font-variant-numeric:normal;font-feature-settings:normal;text-align:start;letter-spacing:0px;writing-mode:lr-tb;text-anchor:start;opacity:1;fill:#0cb9a5;fill-opacity:1;stroke:none;stroke-width:0.25;stroke-linecap:round;stroke-linejoin:round;stroke-miterlimit:4;stroke-dasharray:none;stroke-dashoffset:0;stroke-opacity:1"
           aria-label="N">
          <path
             id="path1124"
             style="font-style:normal;font-variant:normal;font-weight:bold;font-stretch:normal;font-family:'Droid Sans';-inkscape-font-specification:'Droid Sans Bold';letter-spacing:0px;word-spacing:-0.02910417px;fill:#0cb9a5;fill-opacity:1;stroke-width:0.25"
             d="m 94.699717,93.481133 h -1.353922 l -1.98093,-3.810276 h -0.03101 q 0.02067,0.265272 0.03445,0.5271 0.01378,0.223931 0.02067,0.471978 0.01034,0.244601 0.01034,0.440972 v 2.370226 h -0.954292 v -5.03673 h 1.347033 l 1.977484,3.77238 h 0.02067 q -0.01033,-0.261828 -0.02412,-0.516765 -0.0034,-0.110243 -0.01033,-0.223931 -0.0034,-0.117133 -0.0069,-0.230821 -0.0034,-0.117134 -0.0069,-0.223932 0,-0.106798 0,-0.192925 v -2.384006 h 0.957736 z"
             inkscape:connector-curvature="0" />
        </g>
        <g
           id="text4612-1-0-7-4-6-6-2-2"
           style="font-style:normal;font-variant:normal;font-weight:bold;font-stretch:normal;font-size:7.05555534px;line-height:0px;font-family:'Droid Sans';-inkscape-font-specification:'Droid Sans, Bold';font-variant-ligatures:normal;font-variant-caps:normal;font-variant-numeric:normal;font-feature-settings:normal;text-align:start;letter-spacing:0px;writing-mode:lr-tb;text-anchor:start;opacity:1;fill:#0cb9a5;fill-opacity:1;stroke:none;stroke-width:0.25;stroke-linecap:round;stroke-linejoin:round;stroke-miterlimit:4;stroke-dasharray:none;stroke-dashoffset:0;stroke-opacity:1"
           aria-label="N">
          <path
             id="path1127"
             style="font-style:normal;font-variant:normal;font-weight:bold;font-stretch:normal;font-family:'Droid Sans';-inkscape-font-specification:'Droid Sans Bold';letter-spacing:0px;word-spacing:-0.02910417px;fill:#0cb9a5;fill-opacity:1;stroke-width:0.25"
             d="m 99.26739,93.481133 h -1.353923 l -1.98093,-3.810276 h -0.031 q 0.02067,0.265272 0.03445,0.5271 0.01378,0.223931 0.02067,0.471978 0.01033,0.244601 0.01033,0.440972 v 2.370226 h -0.954291 v -5.03673 h 1.347032 l 1.977485,3.77238 h 0.02067 q -0.01034,-0.261828 -0.02412,-0.516765 -0.0034,-0.110243 -0.01033,-0.223931 -0.0034,-0.117133 -0.0069,-0.230821 -0.0034,-0.117134 -0.0069,-0.223932 0,-0.106798 0,-0.192925 v -2.384006 h 0.957737 z"
             inkscape:connector-curvature="0" />
        </g>
      </g>
      <g
         transform="translate(27.04908,-53.941286)"
         id="g5150-5-4-8-6"
         style="opacity:1;fill:#0ed1ba;fill-opacity:1">
        <g
           id="text4612-46-5-1-6-4"
           style="font-style:normal;font-variant:normal;font-weight:bold;font-stretch:normal;font-size:7.05555534px;line-height:0px;font-family:'Droid Sans';-inkscape-font-specification:'Droid Sans, Bold';font-variant-ligatures:normal;font-variant-caps:normal;font-variant-numeric:normal;font-feature-settings:normal;text-align:start;letter-spacing:-0.98425001px;writing-mode:lr-tb;text-anchor:start;opacity:1;fill:#0ed1ba;fill-opacity:1;stroke:none;stroke-width:0.25;stroke-linecap:round;stroke-linejoin:round;stroke-miterlimit:4;stroke-dasharray:none;stroke-dashoffset:0;stroke-opacity:1"
           aria-label="D">
          <path
             id="path1108"
             style="font-style:normal;font-variant:normal;font-weight:bold;font-stretch:normal;font-family:'Droid Sans';-inkscape-font-specification:'Droid Sans Bold';letter-spacing:-0.98425001px;word-spacing:-0.02910417px;fill:#0ed1ba;fill-opacity:1;stroke-width:0.25"
             d="m 76.514355,90.914536 q 0,0.637343 -0.1757,1.119656 -0.172255,0.478869 -0.502984,0.802708 -0.327284,0.320394 -0.806152,0.482313 -0.475423,0.16192 -1.085205,0.16192 h -1.326362 v -5.03673 h 1.474501 q 0.55466,0 0.999078,0.158474 0.447862,0.158475 0.764811,0.471979 0.316949,0.310058 0.485758,0.771701 0.172255,0.461643 0.172255,1.067979 z m -1.08176,0.02756 q 0,-0.420301 -0.08613,-0.72347 -0.08268,-0.306613 -0.244602,-0.506429 -0.158475,-0.199815 -0.392741,-0.296278 -0.230821,-0.09646 -0.530545,-0.09646 h -0.492648 v 3.279731 h 0.392741 q 0.675238,0 1.012858,-0.413411 0.341064,-0.413412 0.341064,-1.24368 z"
             inkscape:connector-curvature="0" />
        </g>
        <g
           id="text4612-0-0-9-1-2-5"
           style="font-style:normal;font-variant:normal;font-weight:bold;font-stretch:normal;font-size:5.11527777px;line-height:0px;font-family:'Droid Sans';-inkscape-font-specification:'Droid Sans Bold';font-variant-ligatures:normal;font-variant-caps:normal;font-variant-numeric:normal;font-feature-settings:normal;text-align:start;letter-spacing:-0.98425001px;writing-mode:lr-tb;text-anchor:start;opacity:1;fill:#0ed1ba;fill-opacity:1;stroke:none;stroke-width:0.25;stroke-linecap:round;stroke-linejoin:round;stroke-miterlimit:4;stroke-dasharray:none;stroke-dashoffset:0;stroke-opacity:1"
           aria-label="e">
          <path
             id="path1111"
             style="font-style:normal;font-variant:normal;font-weight:bold;font-stretch:normal;font-family:'Droid Sans';-inkscape-font-specification:'Droid Sans Bold';letter-spacing:-0.98425001px;word-spacing:-0.02910417px;fill:#0ed1ba;fill-opacity:1;stroke-width:0.25"
             d="m 77.941774,91.126585 q -0.202313,0 -0.337189,0.142368 -0.132378,0.142369 -0.152359,0.447087 h 0.971603 q -0.0025,-0.127382 -0.03247,-0.234783 -0.02997,-0.107401 -0.08992,-0.184829 -0.05994,-0.07993 -0.149862,-0.124885 -0.08992,-0.04496 -0.209806,-0.04496 z m 0.09741,2.352828 q -0.299723,0 -0.55199,-0.08742 -0.252267,-0.08742 -0.434599,-0.262258 -0.182332,-0.177336 -0.284737,-0.444589 -0.09991,-0.269751 -0.09991,-0.631917 0,-0.367161 0.09241,-0.641907 0.09241,-0.274747 0.257262,-0.457078 0.167346,-0.18483 0.399631,-0.277244 0.234783,-0.09242 0.519521,-0.09242 0.277244,0 0.499538,0.08492 0.224793,0.08242 0.37965,0.244774 0.157355,0.16235 0.239779,0.399631 0.08492,0.234783 0.08492,0.539502 v 0.369658 H 77.43724 q 0.005,0.159853 0.04995,0.289733 0.04746,0.127382 0.12988,0.217299 0.08492,0.08742 0.202313,0.134876 0.119889,0.04746 0.272249,0.04746 0.127382,0 0.239778,-0.01249 0.114894,-0.01499 0.222295,-0.04246 0.107401,-0.02748 0.212304,-0.06744 0.104903,-0.04246 0.214802,-0.09741 v 0.589456 q -0.09991,0.05245 -0.202313,0.08992 -0.09991,0.03497 -0.212304,0.05994 -0.112397,0.02498 -0.242277,0.03497 -0.12988,0.01249 -0.284737,0.01249 z"
             inkscape:connector-curvature="0" />
        </g>
      </g>
      <g
         transform="translate(20.213393,-47.916156)"
         id="g5156-5-8-2-7"
         style="fill:#fdfffe;fill-opacity:1">
        <g
           id="text4612-1-9-0-2-4-0"
           style="font-style:normal;font-variant:normal;font-weight:bold;font-stretch:normal;font-size:7.05555534px;line-height:0px;font-family:'Droid Sans';-inkscape-font-specification:'Droid Sans, Bold';font-variant-ligatures:normal;font-variant-caps:normal;font-variant-numeric:normal;font-feature-settings:normal;text-align:start;letter-spacing:-0.98425001px;writing-mode:lr-tb;text-anchor:start;opacity:1;fill:#fdfffe;fill-opacity:1;stroke:none;stroke-width:0.25;stroke-linecap:round;stroke-linejoin:round;stroke-miterlimit:4;stroke-dasharray:none;stroke-dashoffset:0;stroke-opacity:1"
           aria-label="F">
          <path
             id="path1114"
             style="font-style:normal;font-variant:normal;font-weight:bold;font-stretch:normal;font-family:'Droid Sans';-inkscape-font-specification:'Droid Sans Bold';letter-spacing:-0.98425001px;word-spacing:-0.02910417px;fill:#fdfffe;fill-opacity:1;stroke-width:0.25"
             d="m 80.504392,93.481133 h -1.050754 v -5.03673 h 2.88699 v 0.875054 h -1.836236 v 1.298801 h 1.708767 v 0.871609 h -1.708767 z"
             inkscape:connector-curvature="0" />
        </g>
        <g
           id="text4694-2-9-0-8-7"
           style="font-style:normal;font-variant:normal;font-weight:bold;font-stretch:normal;font-size:5.11527777px;line-height:4.23333311px;font-family:'Droid Sans';-inkscape-font-specification:'Droid Sans Bold';font-variant-ligatures:normal;font-variant-caps:normal;font-variant-numeric:normal;font-feature-settings:normal;text-align:start;letter-spacing:-0.26458332px;writing-mode:lr-tb;text-anchor:start;opacity:1;fill:#fdfffe;fill-opacity:1;stroke:none;stroke-width:0.25;stroke-linecap:round;stroke-linejoin:round;stroke-miterlimit:4;stroke-dasharray:none;stroke-dashoffset:0;stroke-opacity:1"
           aria-label="use">
          <path
             id="path1117"
             style="letter-spacing:-0.26458332px;fill:#fdfffe;fill-opacity:1;stroke-width:0.25"
             d="m 84.494405,93.429459 -0.102406,-0.357171 h -0.03996 q -0.06244,0.107401 -0.149862,0.18483 -0.08492,0.07493 -0.187327,0.124884 -0.102405,0.04995 -0.217299,0.07243 -0.114894,0.02498 -0.234783,0.02498 -0.204811,0 -0.372157,-0.05745 -0.167345,-0.05994 -0.287235,-0.18483 -0.119889,-0.124885 -0.184829,-0.317207 -0.06494,-0.192322 -0.06494,-0.462073 v -1.82082 h 0.761797 v 1.630995 q 0,0.302221 0.08992,0.45458 0.09241,0.149862 0.29223,0.149862 0.149862,0 0.249769,-0.05994 0.09991,-0.05994 0.157355,-0.177336 0.05994,-0.117392 0.08492,-0.289733 0.02498,-0.172341 0.02498,-0.394635 v -1.313788 h 0.761796 v 2.792423 z"
             inkscape:connector-curvature="0" />
          <path
             id="path1119"
             style="letter-spacing:-0.26458332px;fill:#fdfffe;fill-opacity:1;stroke-width:0.25"
             d="m 87.471828,92.600224 q 0,0.219797 -0.07993,0.384645 -0.07993,0.164848 -0.22729,0.274746 -0.147364,0.109899 -0.35717,0.164848 -0.209807,0.05495 -0.469567,0.05495 -0.137373,0 -0.254765,-0.01 -0.117391,-0.0075 -0.222294,-0.02747 -0.104904,-0.01998 -0.202314,-0.04995 -0.09741,-0.02997 -0.197318,-0.07493 v -0.629419 q 0.104904,0.05245 0.219798,0.09491 0.117391,0.04246 0.232285,0.07493 0.114894,0.02997 0.222295,0.04746 0.109898,0.01748 0.202313,0.01748 0.102406,0 0.174839,-0.01748 0.07243,-0.01998 0.117391,-0.05245 0.04746,-0.03497 0.06744,-0.07993 0.02248,-0.04746 0.02248,-0.09991 0,-0.05245 -0.01748,-0.09241 -0.01499,-0.04246 -0.07243,-0.08742 -0.05745,-0.04746 -0.169843,-0.104903 -0.109898,-0.05994 -0.297225,-0.144866 -0.182332,-0.08242 -0.317208,-0.16235 -0.132377,-0.08242 -0.219797,-0.182332 -0.08492,-0.09991 -0.127382,-0.22729 -0.04246,-0.12988 -0.04246,-0.307217 0,-0.19482 0.07493,-0.339686 0.07493,-0.147364 0.212304,-0.244774 0.137373,-0.09741 0.329696,-0.144866 0.19482,-0.04995 0.432101,-0.04995 0.249769,0 0.474562,0.05745 0.224792,0.05745 0.462073,0.172341 l -0.229788,0.539502 q -0.189825,-0.08992 -0.362166,-0.147364 -0.17234,-0.05745 -0.344681,-0.05745 -0.154857,0 -0.224793,0.05495 -0.06744,0.05495 -0.06744,0.149862 0,0.04995 0.01748,0.08992 0.01748,0.03746 0.06994,0.07993 0.05245,0.03996 0.147364,0.08992 0.09491,0.04746 0.247271,0.117392 0.177337,0.07743 0.319705,0.154857 0.142369,0.07493 0.244774,0.17234 0.102406,0.09741 0.157355,0.227291 0.05495,0.12988 0.05495,0.314709 z"
             inkscape:connector-curvature="0" />
          <path
             id="path1121"
             style="letter-spacing:-0.26458332px;fill:#fdfffe;fill-opacity:1;stroke-width:0.25"
             d="m 88.933152,91.126585 q -0.202313,0 -0.337189,0.142368 -0.132378,0.142369 -0.152359,0.447087 h 0.971603 q -0.0025,-0.127382 -0.03247,-0.234783 -0.02997,-0.107401 -0.08992,-0.184829 -0.05994,-0.07993 -0.149862,-0.124885 -0.08992,-0.04496 -0.209806,-0.04496 z m 0.09741,2.352828 q -0.299723,0 -0.551991,-0.08742 -0.252267,-0.08742 -0.434598,-0.262258 -0.182332,-0.177336 -0.284737,-0.444589 -0.09991,-0.269751 -0.09991,-0.631917 0,-0.367161 0.09241,-0.641907 0.09242,-0.274747 0.257263,-0.457078 0.167345,-0.18483 0.399631,-0.277244 0.234783,-0.09242 0.51952,-0.09242 0.277244,0 0.499539,0.08492 0.224793,0.08242 0.37965,0.244774 0.157355,0.16235 0.239778,0.399631 0.08492,0.234783 0.08492,0.539502 v 0.369658 H 88.42861 q 0.005,0.159853 0.04995,0.289733 0.04746,0.127382 0.129881,0.217299 0.08492,0.08742 0.202313,0.134876 0.119889,0.04746 0.272248,0.04746 0.127383,0 0.239779,-0.01249 0.114894,-0.01499 0.222295,-0.04246 0.107401,-0.02748 0.212304,-0.06744 0.104903,-0.04246 0.214802,-0.09741 v 0.589456 q -0.09991,0.05245 -0.202314,0.08992 -0.09991,0.03497 -0.212304,0.05994 -0.112396,0.02498 -0.242276,0.03497 -0.12988,0.01249 -0.284737,0.01249 z"
             inkscape:connector-curvature="0" />
        </g>
      </g>
    </g>
  </g>
</svg>
